<svg xmlns="http://www.w3.org/2000/svg" width="24" height="24" id="smile"><path d="M12 24C5.4 24 0 18.6 0 12S5.4 0 12 0s12 5.4 12 12-5.4 12-12 12zm0-22C6.5 2 2 6.5 2 12s4.5 10 10 10 10-4.5 10-10S17.5 2 12 2z"></path><path d="M7 13c-1.7 0-3-1.3-3-3s1.3-3 3-3 3 1.3 3 3-1.3 3-3 3zm0-4c-.6 0-1 .4-1 1s.4 1 1 1 1-.4 1-1-.4-1-1-1zm10 4c-1.7 0-3-1.3-3-3s1.3-3 3-3 3 1.3 3 3-1.3 3-3 3zm0-4c-.6 0-1 .4-1 1s.4 1 1 1 1-.4 1-1-.4-1-1-1zm-5 11c-2.4 0-4.7-1.1-6.2-2.9-.3-.4-.3-1.1.1-1.4.4-.3 1.1-.3 1.4.1C8.5 17.2 10.2 18 12 18s3.5-.8 4.6-2.2c.3-.4 1-.5 1.4-.1.4.3.5 1 .1 1.4-1.4 1.8-3.7 2.9-6.1 2.9z"></path></svg>